<svg xmlns="http://www.w3.org/2000/svg" viewBox="0 0 64.45 19"><defs><style>.cls-1{fill:#fff;}.cls-2{fill:#c00;}</style></defs><g id="Ebene_2" data-name="Ebene 2"><g id="Ebene_1-2" data-name="Ebene 1"><g id="filter4"><path class="cls-1" d="M32.2.05C42.31.05,52.43.1,62.54,0c1.68,0,1.94.49,1.91,2-.1,5.2-.08,10.41,0,15.62,0,1.14-.31,1.38-1.41,1.37q-30.78,0-61.58,0C.2,19,0,18.59,0,17.48c0-5.33.06-10.66,0-16C0,.28.34,0,1.5,0,11.73.07,22,.05,32.2.05ZM42.36,15.13,52,2H32.76ZM31.74,2.05H12.55l9.62,13.07ZM43,17H61.71c-2.89-4.55-6.16-8.56-9.25-12.86ZM21.42,17,12,4.29,2.74,17Zm20.21,0c-3.21-4.35-6.23-8.44-9.36-12.7L22.91,17ZM52.88,1.93l9.65,13.14c0-4.3,0-8,0-11.78,0-.81,0-1.4-1.12-1.38C58.72,2,56,1.93,52.88,1.93ZM2.07,15,11.64,1.93c-3.13,0-5.89,0-8.65,0-.58,0-.93.15-.92.8Z"/><path class="cls-2" d="M43,17,52.46,4.15c3.09,4.3,6.36,8.31,9.25,12.86Z"/><path class="cls-2" d="M21.42,17H2.74L12,4.29Z"/><path class="cls-2" d="M41.63,17H22.91l9.36-12.7C35.4,8.57,38.42,12.66,41.63,17Z"/></g></g></g></svg>