<svg xmlns="http://www.w3.org/2000/svg" viewBox="0 0 17 23.59"><defs><style>.cls-1{fill:#fff;}.cls-2{fill:#06f;}</style></defs><g id="Ebene_2" data-name="Ebene 2"><g id="Ebene_1-2" data-name="Ebene 1"><g id="rh4"><path class="cls-1" d="M8.8,23.59c-6.83,0-10.87-6.53-7.71-13A89.94,89.94,0,0,1,7.49.32,1.73,1.73,0,0,1,9.13.13c4,4.38,7.69,9,7.87,15.24C17.14,20.42,13.86,23.56,8.8,23.59ZM9.53,4.28l-1-1.12L7.74,4.29C6.16,6.8,4.57,9.32,3,11.85a5.86,5.86,0,0,0-.36,5.37c1.12,3,5.26,5.22,8.34,4s4.86-5.49,3.36-8.3L14.22,12Q11.88,8.12,9.53,4.28Z"/><path class="cls-2" d="M14.22,12l.13.91v3.91L3.44,12.06l2-3.8Z"/><path class="cls-2" d="M9.53,4.28l3,5.72L6.15,7.26c.59-1.09,1.09-2,1.59-3l.75-1.13Z"/><path class="cls-2" d="M13.65,17.82c-.9,2.71-4.94,3.65-7.35,2.37-2.63-1.39-4.06-4.27-3-6.88Z"/></g></g></g></svg>