<?xml version="1.0" encoding="utf-8"?>
<!-- Generator: Adobe Illustrator 25.2.0, SVG Export Plug-In . SVG Version: 6.00 Build 0)  -->
<svg version="1.1" id="Ebene_1" xmlns="http://www.w3.org/2000/svg" xmlns:xlink="http://www.w3.org/1999/xlink" x="0px" y="0px"
	 viewBox="0 0 29.6 19" style="enable-background:new 0 0 29.6 19;" xml:space="preserve">
<style type="text/css">
	.st0{fill:#FFFFFF;}
	.st1{fill:#CC0000;}
</style>
<g id="Ebene_2_1_">
	<g id="Ebene_1-2">
		<g id="voc4">
			<path class="st0" d="M13.5,19c-2.4,0-4.9,0-7.3,0c-3.2,0.2-6-2.2-6.2-5.5c0-0.1,0-0.2,0-0.3c-0.3-3.2,2-6,5.2-6.4
				c0.1,0,0.2,0,0.3,0c0.5,0,0.8-0.1,0.9-0.8c0.5-3.4,3.3-5.9,6.8-6c2.4-0.2,4.7-0.1,6.6,1.6C20.1,1.9,20.6,2,21,1.9
				c3.5-0.2,6.8,1.9,8,5.3c1.4,3.6,0.3,7.8-2.8,10.2c-1.7,1.2-3.8,1.7-5.9,1.6C18,19,15.8,19,13.5,19z M11.1,17.1
				c2-0.2,4.1,0.3,6.1-0.4c1.7-0.6,2.8-2.1,2.9-3.9c-0.2-1.9-1.7-3.4-3.5-3.7C12.9,8.6,9.3,8.6,5.7,9c-2,0.2-3.6,1.9-3.7,3.9
				c0.1,2,1.6,3.6,3.5,4C7.4,17.3,9.2,17,11.1,17.1L11.1,17.1z M21,16.8c2.8,0.4,6.1-2.9,6.4-5.9S25.4,4.8,21.9,4
				c-2.1-0.5-5.2,0.9-5.9,2.7C20.8,7,23.9,11.5,21,16.8L21,16.8z M17.1,2.5c-0.9-0.2-1.5-0.3-2.1-0.4c-2.5-0.3-5,1-6.2,3.2
				c-0.6,1.5-0.6,1.5,1,1.5c0.8,0,1.6,0,2.4,0c0.4,0.1,0.8-0.1,1-0.5C14.2,4.7,15.5,3.4,17.1,2.5z"/>
			<path class="st1" d="M11.1,17.1c-1.8-0.1-3.7,0.2-5.4-0.2c-1.9-0.4-3.4-2-3.5-4c0.1-2,1.7-3.6,3.7-3.9c3.6-0.4,7.2-0.4,10.8,0
				c1.9,0.3,3.3,1.9,3.5,3.8c-0.1,1.8-1.2,3.4-2.9,3.9C15.2,17.4,13.1,16.9,11.1,17.1z"/>
			<path class="st1" d="M21,16.8c2.9-5.3-0.2-9.8-5-10.1c0.6-1.8,3.7-3.2,5.9-2.7c3.4,0.8,5.8,3.9,5.5,7S23.9,17.2,21,16.8z"/>
		</g>
	</g>
</g>
</svg>
