<svg xmlns="http://www.w3.org/2000/svg" viewBox="0 0 310.96 227"><defs><style>.cls-1{fill:#f9a028;}.cls-2{fill:#fff;}</style></defs><g id="Ebene_2" data-name="Ebene 2"><g id="Ebene_1-2" data-name="Ebene 1"><g id="kwl_summer"><path class="cls-1" d="M285.19,165.33h-4.8v54.36c0,3,.37,2.61-2.7,2.61H20.49c-2.8,0-2.51.39-2.51-2.43q0-78.21,0-156.43c0-1.76-.34-2.38-2.22-2.27-3,.18-6.08.08-9.12,0-.64,0-1.85.56-1.8-.71s-.94-2.85,1.18-3.58c5.29-1.83,10.53-3.8,15.79-5.72,13.65-5,27.29-10,41-14.87a2.24,2.24,0,0,0,1.73-2.58c-.07-6.15,0-12.3-.06-18.44,0-1.39.36-1.87,1.8-1.83,3.58.09,7.16.11,10.74,0,1.51,0,1.75.54,1.73,1.86-.07,4.41,0,8.83-.06,13.24,0,1.57.21,1.9,1.81,1.31q28.35-10.39,56.73-20.67c3.47-1.26,7-2.49,10.4-3.8a4.11,4.11,0,0,1,3.1,0q36.15,13.2,72.33,26.35l68.32,24.85c2,.73,2.65,2,2.12,4-.22.81-.8.58-1.28.59-3.34,0-6.68.1-10,0-1.54-.06-1.84.45-1.84,1.9.05,17.78,0,35.56,0,53.34v18.24h4.8v-5.33q0-30.78,0-61.56c0-1.49.4-1.92,1.89-1.87,3.15.11,6.32,0,9.48.06,1.36,0,1.89-.29,1.83-1.76-.11-2.85-.11-5.72,0-8.58a1.89,1.89,0,0,0-1.56-2.15c-3.66-1.27-7.28-2.63-10.92-4Q218.25,24.9,150.6.28a3.63,3.63,0,0,0-2.73,0Q122.29,9.61,96.69,18.9L83.57,23.63c0-4.5-.06-8.79,0-13.07,0-1.52-.48-1.9-1.93-1.88q-10.11.11-20.23,0c-1.39,0-1.81.34-1.79,1.77.07,6.74,0,13.48.06,20.22A2,2,0,0,1,58.11,33c-1.71.51-3.37,1.19-5,1.8Q27.29,44.13,1.52,53.48A1.91,1.91,0,0,0,0,55.66c.1,2.92.08,5.84,0,8.76C0,65.57.32,66,1.52,66c3-.08,6.09,0,9.13,0,2.88,0,2.5-.38,2.5,2.42q0,78.21,0,156.41c0,1.8.41,2.24,2.23,2.24q133.86-.08,267.72,0c1.68,0,2.18-.32,2.18-2.1Q285.18,195.1,285.19,165.33Z"/><path class="cls-2" d="M79.84,150.2c-4.51-4.51-8.94-8.92-13.35-13.36-.48-.48-1.37-.87-1.09-1.7s1.25-.45,1.89-.45q33.74,0,67.47,0c1.68,0,2-.47,2-2.05-.06-13.78,0-27.56-.08-41.34,0-1.63.46-1.93,2-1.93q46.89.06,93.78,0c1.47,0,1.9.34,1.89,1.85-.06,13.9,0,27.8-.06,41.7,0,1.37.3,1.77,1.73,1.76,19.45,0,38.89,0,58.34-.06a3.94,3.94,0,0,1,3.11,1.31q6.32,6.45,12.78,12.78c1.07,1,.86,1.67-.09,2.6q-6.51,6.4-12.91,12.91a3.38,3.38,0,0,1-2.66,1.09c-19.38,0-38.77,0-58.16-.06-1.65,0-2.17.28-2.16,2.07.08,15.81,0,31.62.08,47.43,0,1.64-.41,2.13-2.09,2.13q-46.73-.08-93.43,0c-1.61,0-2.14-.38-2.13-2.08.06-15.93,0-31.86.07-47.79,0-1.4-.35-1.75-1.75-1.74q-33.73.06-67.47,0c-.42,0-.84,0-1.25,0s-.63.09-.81-.24.08-.66.33-.91l3.29-3.29Zm104.24-12.52q-54.59,0-109.17,0c-.61,0-1.44-.34-1.78.43s.49,1.12.92,1.55c3,3.06,6,6.14,9.13,9.1,1.07,1,.9,1.56-.06,2.48-3,2.85-5.85,5.79-8.74,8.72-.52.53-1.54,1-1.27,1.79.34,1,1.46.52,2.23.52q108.72,0,217.44,0a6.76,6.76,0,0,1,.9,0,2.18,2.18,0,0,0,1.89-.77c3.48-3.52,7-7,10.51-10.5.87-.85.76-1.36-.05-2.15-3.33-3.25-6.63-6.53-9.87-9.88a4.14,4.14,0,0,0-3.27-1.36Q238.49,137.7,184.08,137.68Zm1.48,27.63c-14.26,0-28.51,0-42.77,0-1.21,0-1.59.25-1.59,1.54q.08,22,0,44c0,1.29.38,1.54,1.6,1.54q42.67-.06,85.35,0c1.29,0,1.69-.25,1.68-1.63q-.08-21.93,0-43.84c0-1.39-.4-1.63-1.69-1.63C214,165.33,199.75,165.31,185.56,165.31Zm-.08-30.64c14.19,0,28.38,0,42.57,0,1.35,0,1.79-.26,1.79-1.72q-.1-18.78,0-37.56c0-1.43-.39-1.74-1.76-1.74q-42.48.06-85,0c-1.45,0-1.91.31-1.9,1.84q.09,18.69,0,37.39c0,1.57.49,1.8,1.89,1.79C157.22,134.65,171.35,134.67,185.48,134.67Z"/></g></g></g></svg>