<svg xmlns="http://www.w3.org/2000/svg" viewBox="0 0 311.02 227"><defs><style>.cls-1{fill:#f9a028;}.cls-2{fill:#fff;}</style></defs><g id="Ebene_2" data-name="Ebene 2"><g id="Ebene_1-2" data-name="Ebene 1"><g id="kwl_bypass"><path class="cls-1" d="M285.19,165.33h-4.8v8h4.8Z"/><path class="cls-1" d="M280.39,204.33v15.35c0,3,.37,2.61-2.7,2.61H20.49c-2.8,0-2.51.39-2.51-2.43q0-78.21,0-156.43c0-1.76-.34-2.38-2.22-2.27-3,.18-6.08.08-9.12,0-.64,0-1.85.56-1.8-.71s-.94-2.85,1.18-3.58c5.29-1.83,10.53-3.8,15.79-5.72,13.65-5,27.29-10,41-14.87a2.24,2.24,0,0,0,1.73-2.59c-.07-6.14,0-12.29-.06-18.43,0-1.39.36-1.87,1.8-1.83,3.58.09,7.16.11,10.73,0,1.52,0,1.76.54,1.74,1.86-.07,4.41,0,8.83-.06,13.24,0,1.57.21,1.9,1.81,1.31q28.35-10.39,56.73-20.67c3.47-1.26,7-2.49,10.4-3.8a4.11,4.11,0,0,1,3.1,0q36.15,13.2,72.33,26.35l68.32,24.85c2,.73,2.65,2,2.12,4-.22.81-.8.58-1.28.59-3.34,0-6.68.1-10,0-1.54-.06-1.84.45-1.84,1.9.05,17.78,0,35.56,0,53.34v18.24h4.8v-5.33q0-30.78,0-61.56c0-1.49.4-1.92,1.89-1.87,3.15.11,6.32,0,9.48.06,1.36,0,1.89-.29,1.83-1.76-.11-2.85-.11-5.72,0-8.58a1.89,1.89,0,0,0-1.56-2.15c-3.66-1.27-7.28-2.63-10.92-4Q218.25,24.9,150.6.28a3.63,3.63,0,0,0-2.73,0Q122.29,9.61,96.69,18.9L83.57,23.63c0-4.5-.06-8.79,0-13.07,0-1.52-.48-1.9-1.93-1.88q-10.11.11-20.23,0c-1.39,0-1.81.34-1.79,1.77.07,6.74,0,13.48.06,20.22A2,2,0,0,1,58.11,33c-1.71.51-3.37,1.19-5,1.8Q27.29,44.13,1.52,53.48A1.91,1.91,0,0,0,0,55.66c.1,2.92.08,5.84,0,8.76C0,65.57.32,66,1.52,66c3-.08,6.09,0,9.13,0,2.88,0,2.5-.38,2.5,2.42q0,78.21,0,156.41c0,1.8.41,2.24,2.23,2.24q133.86-.08,267.72,0c1.68,0,2.18-.32,2.18-2.1q0-10.29,0-20.56Z"/><path class="cls-2" d="M185.59,89.42c15.63,0,31.26,0,46.89,0,1.5,0,1.87.4,1.86,1.88-.06,13.9,0,27.8-.07,41.7,0,1.43.4,1.73,1.77,1.73,19.45,0,38.89,0,58.34-.06a3.76,3.76,0,0,1,3,1.2q6.31,6.47,12.78,12.78c1.08,1.06,1.07,1.69,0,2.74q-6.53,6.38-12.91,12.9a3.35,3.35,0,0,1-2.66,1.07c-19.39,0-38.78,0-58.17-.06-1.77,0-2.29.47-2.11,2.17a24.72,24.72,0,0,1,0,4.47c-.1,1.24.4,1.46,1.51,1.44,4.71,0,9.42,0,14.14,0h59.59c.55,0,1.16,0,1.42.51s-.31.95-.67,1.31c-3.08,3.09-6.18,6.15-9.23,9.26a41.29,41.29,0,0,0-4.29,4.48c1.41,1.44,2.82,2.9,4.25,4.34,3,3,6,6,9,9,.42.44,1.28.77,1,1.55s-1.22.55-1.91.55H242.81c-2.44,0-4.89,0-7.33,0-1,0-1.21.28-1.19,1.21.05,3.1,0,6.21.05,9.3,0,1.52-.33,2.08-2,2.07q-46.89-.06-93.78,0c-1.53,0-1.94-.51-1.9-2,.1-2.92-.05-5.85.07-8.76.06-1.45-.27-1.89-1.81-1.88-17.6.06-35.2,0-52.8.07A4.15,4.15,0,0,1,78.89,203q-6.31-6.47-12.78-12.79c-1-1-1.14-1.66,0-2.73,4.39-4.29,8.73-8.65,13-13a3.55,3.55,0,0,1,2.82-1.14c17.66,0,35.32,0,53,.05,1.45,0,2-.27,1.87-1.82a20.78,20.78,0,0,1,0-4.46c.16-1.58-.47-1.82-1.89-1.8-7.69.07-15.39,0-23.08,0q-22.29,0-44.57,0c-.6,0-1.48.39-1.77-.36s.49-1.26,1-1.76c4-4,8.07-8.12,12.16-12.13.82-.8.9-1.23,0-2.08-4.14-4.05-8.21-8.16-12.29-12.26-.44-.45-1.22-.82-.94-1.58s1.15-.43,1.74-.44q33.74,0,67.47,0c1.65,0,2.17-.28,2.16-2.08-.09-13.72,0-27.44-.08-41.16,0-1.57.3-2.1,2-2.09C154.33,89.45,170,89.42,185.59,89.42Zm-1.52,48.26h-51q-29.08,0-58.17,0c-.61,0-1.44-.34-1.77.44s.5,1.12.92,1.55c2.94,3,5.82,6,8.89,8.83,1.33,1.24,1.14,1.88-.07,3-2.91,2.73-5.69,5.61-8.5,8.46-.52.53-1.54,1-1.26,1.79.35,1,1.47.51,2.24.51q71.58,0,143.17,0,37.32,0,74.63,0a3.54,3.54,0,0,0,2.81-1.16c3.2-3.29,6.44-6.56,9.75-9.74,1.09-1,1.28-1.66.07-2.81-3.29-3.11-6.48-6.34-9.63-9.6a4.12,4.12,0,0,0-3.27-1.36Q238.48,137.7,184.07,137.68ZM192,201h109c.67,0,1.58.39,2-.42s-.55-1.21-1-1.68c-2.84-2.89-5.68-5.79-8.62-8.59-1.11-1-1.26-1.69-.06-2.81,2.88-2.69,5.62-5.53,8.37-8.34.55-.56,1.65-1,1.34-1.91s-1.49-.48-2.26-.48q-77.56,0-155.14,0-31.14,0-62.27,0a3.33,3.33,0,0,0-2.68,1c-3.24,3.33-6.52,6.64-9.87,9.86-1.07,1-.89,1.63.07,2.56q4.81,4.68,9.49,9.49A4.12,4.12,0,0,0,83.52,201Q137.73,200.95,192,201Zm-6.45-66.29c14.2,0,28.4,0,42.6,0,1.44,0,1.72-.42,1.72-1.77q-.08-18.71,0-37.41c0-1.53-.45-1.84-1.9-1.84q-42.41.07-84.83,0c-1.68,0-1.91.55-1.9,2q.09,18.52,0,37c0,1.51.26,2,1.9,2C157.24,134.63,171.37,134.67,185.51,134.67Zm.19,30.64h-8.22c-11.51,0-23,0-34.52,0-1.45,0-1.86.42-1.75,1.8a22.77,22.77,0,0,1,0,4.29c-.19,1.69.47,2,2,2q42.3-.06,84.6,0a6.61,6.61,0,0,1,.89,0c.89.13,1.11-.28,1.08-1.11a49.91,49.91,0,0,1,0-5.19c.1-1.39-.32-1.76-1.74-1.75C214,165.33,199.83,165.31,185.7,165.31Zm-.23,47c14.26,0,28.51,0,42.76,0,1.21,0,1.7-.24,1.6-1.54a24.08,24.08,0,0,1,0-4.65c.19-1.66-.47-1.9-2-1.89q-42.31.06-84.62,0a5.77,5.77,0,0,1-.72,0c-1-.14-1.37.18-1.32,1.24a39.08,39.08,0,0,1,0,5.19c-.12,1.41.42,1.62,1.69,1.62C157.09,212.33,171.28,212.35,185.47,212.35Z"/></g></g></g></svg>