<svg xmlns="http://www.w3.org/2000/svg" viewBox="0 0 311.06 227"><defs><style>.cls-1{fill:#f9a028;}.cls-2{fill:#fff;}</style></defs><g id="Ebene_2" data-name="Ebene 2"><g id="Ebene_1-2" data-name="Ebene 1"><g id="kwl_normal"><path class="cls-1" d="M280.39,173.31h4.8v-8h-4.8Z"/><path class="cls-1" d="M280.39,204.34v15.34c0,3,.37,2.61-2.7,2.61H20.49c-2.8,0-2.51.39-2.51-2.43q0-78.21,0-156.43c0-1.76-.34-2.38-2.22-2.27-3,.18-6.08.08-9.12,0-.64,0-1.85.56-1.8-.71s-.94-2.85,1.18-3.58c5.29-1.83,10.53-3.8,15.79-5.72,13.65-5,27.29-10,41-14.87a2.23,2.23,0,0,0,1.73-2.59c-.07-6.14,0-12.29-.06-18.43,0-1.39.36-1.87,1.8-1.83,3.58.09,7.16.11,10.74,0,1.51,0,1.75.54,1.73,1.86-.07,4.41,0,8.83-.06,13.24,0,1.57.21,1.9,1.81,1.31q28.35-10.39,56.73-20.67c3.47-1.26,7-2.49,10.4-3.8a4.11,4.11,0,0,1,3.1,0q36.15,13.2,72.33,26.35l68.32,24.85c2,.73,2.65,2,2.12,4-.22.81-.8.58-1.28.59-3.34,0-6.68.1-10,0-1.54-.06-1.84.45-1.84,1.9.05,17.78,0,35.56,0,53.34v18.26h4.8v-5.36q0-30.78,0-61.56c0-1.49.4-1.92,1.89-1.87,3.15.11,6.32,0,9.48.06,1.36,0,1.89-.29,1.83-1.76-.11-2.85-.11-5.72,0-8.58a1.89,1.89,0,0,0-1.56-2.15c-3.66-1.27-7.28-2.63-10.92-4Q218.25,24.9,150.6.28a3.63,3.63,0,0,0-2.73,0Q122.29,9.61,96.69,18.9L83.57,23.63c0-4.5-.06-8.79,0-13.07,0-1.52-.48-1.9-1.93-1.88q-10.11.11-20.23,0c-1.39,0-1.81.34-1.79,1.77.07,6.74,0,13.48.06,20.22A2,2,0,0,1,58.11,33c-1.71.51-3.37,1.19-5,1.8Q27.29,44.13,1.52,53.48A1.91,1.91,0,0,0,0,55.66c.1,2.92.08,5.84,0,8.76C0,65.57.32,66,1.52,66c3-.08,6.09,0,9.13,0,2.88,0,2.5-.38,2.5,2.42q0,78.21,0,156.41c0,1.8.41,2.24,2.23,2.24q133.86-.08,267.72,0c1.68,0,2.18-.32,2.18-2.1q0-10.27,0-20.55Z"/><path class="cls-2" d="M310.16,187.29c-4.21-4-8.34-8.2-12.41-12.4a4.86,4.86,0,0,0-3.89-1.6c-19.27.06-38.54,0-57.81.07-1.35,0-1.92-.26-1.77-1.72a22.77,22.77,0,0,0,0-4.29c-.16-1.62.35-2.09,2-2.08q36.42.09,72.84,0c.61,0,1.49.38,1.79-.35s-.47-1.26-1-1.76c-4-4-8-8-12-12-.92-.9-1.06-1.37-.05-2.35,4.07-3.94,8.05-8,12.05-12,.49-.49,1.32-1,1-1.73s-1.26-.41-1.92-.41q-36.51,0-73,0c-1.42,0-1.75-.36-1.75-1.75.06-13.9,0-27.81.07-41.71,0-1.5-.41-1.86-1.88-1.85-15.63,0-31.27,0-46.9,0s-31.26,0-46.89,0c-1.55,0-2,.33-2,1.94.07,13.78,0,27.56.08,41.35,0,1.6-.37,2-2,2q-33.73-.09-67.48,0c-.61,0-1.47-.37-1.8.34s.45,1.26.94,1.75c4,4.06,8.06,8.13,12.17,12.13.93.9.82,1.37,0,2.22-4.13,4-8.2,8.16-12.29,12.25-.42.42-1,.85-.81,1.49.23.8,1,.43,1.54.43,5.31,0,10.62,0,15.93,0q26,0,52.09,0c1.35,0,1.9.27,1.76,1.73a22.16,22.16,0,0,0,0,4.46c.2,1.68-.49,1.9-2,1.89-17.66-.05-35.32,0-53-.05a3.35,3.35,0,0,0-2.66,1.1c-4.26,4.33-8.55,8.65-12.91,12.9-1.15,1.12-1.29,1.8-.06,3,4.34,4.19,8.58,8.47,12.79,12.78a3.94,3.94,0,0,0,3.12,1.28c17.66,0,35.32,0,53-.06,1.3,0,1.75.24,1.69,1.63-.12,3,0,6.09-.07,9.13,0,1.44.44,1.84,1.85,1.83,6.74-.07,13.48,0,20.22,0q36.7,0,73.39,0c1.74,0,2.27-.49,2.19-2.22-.13-2.85.07-5.73-.08-8.58-.08-1.58.47-1.81,1.89-1.8,19.45,0,38.9,0,58.35,0a3.56,3.56,0,0,0,2.81-1.16c4.22-4.3,8.47-8.58,12.79-12.77C311.3,189.25,311.44,188.53,310.16,187.29Zm-8.53-49.61c.56,0,1.3-.28,1.62.4s-.45,1.14-.86,1.56c-3.11,3.14-6.21,6.28-9.37,9.36-.79.76-.84,1.18,0,2,3.12,3,6.19,6.13,9.24,9.23.46.47,1.4.84,1,1.68s-1.29.42-1.95.42q-19.43,0-38.83,0c-12.64,0-25.29,0-37.93,0a9.35,9.35,0,0,0-5.19,1.55c-2.33,1.44-4.88,2.46-7.25,3.8a1.86,1.86,0,0,1-2,0q-10.1-5.27-20.2-10.49c-.41-.22-1-.35-.88-1s.61-.82,1.1-1.08c3-1.62,6.15-3.09,9.19-4.71,6.64-3.53,13.39-6.86,20.09-10.28,1.21-.62,2.39-1.3,3.58-2a4,4,0,0,1,2.05-.45Zm-71.81,34.49c0,1-.31,1.16-1.22,1.18-5.43.15-6.44-.12-12.94-3.93a84.22,84.22,0,0,1,7.64-3.86c1.87-.74,4-.21,6-.21.75,0,.47.7.48,1.11C229.81,168.37,229.75,170.27,229.82,172.17ZM141.2,95.48c0-1.45.41-1.76,1.79-1.76,14.2,0,28.4,0,42.6,0s28.16,0,42.24,0c1.48,0,2,.21,2,1.9-.09,12.47-.07,24.94,0,37.41,0,1.31-.28,1.88-1.65,1.64-5.61-1-9.87,2.38-14.42,4.64-6.48,3.21-12.86,6.63-19.28,10-2.48,1.29-5,2.54-7.4,3.9a2.9,2.9,0,0,1-3.09,0c-10.36-5.42-20.79-10.69-31.11-16.18-3.19-1.7-6.37-2.83-10-2.34-1.31.17-1.69-.24-1.68-1.62Q141.29,114.27,141.2,95.48ZM83.14,201a3,3,0,0,1-2.4-.85Q75.75,195,70.62,190c-.86-.84-1-1.4-.05-2.3q5.21-5.05,10.25-10.25a2.76,2.76,0,0,1,2.26-.76h32c9.54,0,19.09-.21,28.63.1,4.09.14,7.41-1.3,10.7-3.19,1.45-.84,3-1.5,4.4-2.33a1.74,1.74,0,0,1,1.85,0l20.37,10.56c.41.21,1,.35.94.93s-.61.68-1,.89c-4.6,2.36-9.21,4.7-13.8,7.07q-9.25,4.78-18.49,9.61a5.29,5.29,0,0,1-2.56.62Q114.64,201,83.14,201Zm58.07-34.23c-.08-1.25.48-1.33,1.54-1.49,4.8-.73,8.33,2.12,12.45,4.18-4.11,2.47-8,4.62-12.84,3.93-1-.13-1.17-.39-1.14-1.26C141.27,170.32,141.31,168.53,141.21,166.75Zm86.64,45.65c-14.13-.08-28.26-.05-42.39-.05s-28.27,0-42.4,0c-1.45,0-2-.27-1.86-1.81a41.86,41.86,0,0,0,0-5c0-.86.12-1.4,1.14-1.23,4.17.67,7.68-1,11.25-2.87,9.81-5.18,19.76-10.09,29.55-15.3a4.26,4.26,0,0,1,4.63,0C198.35,191.7,209,197,219.51,202.69a15.9,15.9,0,0,0,8.74,1.61c1.26-.06,1.68.28,1.58,1.56a26.69,26.69,0,0,0,0,4.47C230,211.88,229.56,212.41,227.85,212.4Zm78-22.51c-3.5,3.42-6.95,6.89-10.38,10.37a2.4,2.4,0,0,1-1.92.72c-23,0-46,0-69.07-.06-2.67,0-4.75-2-7.11-3.08-.54-.25-1-.61-1.54-.87-7.05-3.59-14.11-7.14-21.13-10.76-7.38-3.82-14.71-7.74-22.08-11.57-7.83-4.07-15.7-8.07-23.54-12.12a3.85,3.85,0,0,0-1.92-.21H111.05q-18.08,0-36.15,0c-.61,0-1.44.34-1.77-.43s.49-1.13.92-1.56c3-3.06,6-6.14,9.13-9.09,1.07-1,.89-1.56-.06-2.48-3.14-3-6.19-6.14-9.26-9.22-.36-.37-1-.71-.79-1.3.24-.75,1-.53,1.55-.53q35.52,0,71,0a4.68,4.68,0,0,1,2.21.56Q162.93,146,178,153.66q10.55,5.42,21.06,10.86c7.39,3.82,14.78,7.62,22.15,11.46a6.28,6.28,0,0,0,3.06.73q34.36,0,68.72-.05A4,4,0,0,1,296.1,178c3.2,3.3,6.46,6.54,9.74,9.75C306.64,188.51,306.75,189.05,305.89,189.89Z"/></g></g></g></svg>