<svg xmlns="http://www.w3.org/2000/svg" viewBox="0 0 29.58 19"><defs><style>.cls-1{fill:#fff;}.cls-2{fill:#c00;}</style></defs><g id="Ebene_2" data-name="Ebene 2"><g id="Ebene_1-2" data-name="Ebene 1"><g id="voc3"><path class="cls-1" d="M13.54,19c-2.44,0-4.88,0-7.31,0A5.86,5.86,0,0,1,0,13.26,5.8,5.8,0,0,1,5.5,6.85c.49,0,.77-.13.86-.75a7.07,7.07,0,0,1,6.75-6c2.38-.2,4.69-.09,6.63,1.57a1.75,1.75,0,0,0,1.3.24,8,8,0,0,1,8,5.29,8.88,8.88,0,0,1-2.82,10.2A9.52,9.52,0,0,1,20.31,19C18.05,19,15.8,19,13.54,19Zm-2.49-1.91c2-.18,4.11.32,6.12-.44a4.28,4.28,0,0,0,2.9-3.93A4.29,4.29,0,0,0,16.52,9,48,48,0,0,0,5.74,9a4.15,4.15,0,0,0-3.67,3.89,4.39,4.39,0,0,0,3.54,4C7.39,17.26,9.21,17,11.05,17.08Zm10-.28c2.83.43,6.1-2.89,6.38-5.9S25.36,4.76,21.92,4c-2.13-.5-5.23.93-5.87,2.7C20.84,7,23.92,11.48,21.05,16.8ZM17.1,2.5c-.88-.17-1.49-.32-2.11-.41A6.19,6.19,0,0,0,8.83,5.28c-.65,1.48-.65,1.48,1,1.48.82,0,1.63,0,2.44,0a1,1,0,0,0,1-.47A11.52,11.52,0,0,1,17.1,2.5Z"/><path class="cls-2" d="M21.05,16.8c2.87-5.32-.21-9.76-5-10.15.64-1.77,3.74-3.2,5.87-2.7,3.44.81,5.8,3.89,5.51,7S23.88,17.23,21.05,16.8Z"/><path class="cls-2" d="M17.1,2.5a11.52,11.52,0,0,0-3.81,3.8,1,1,0,0,1-1,.47c-.81,0-1.62,0-2.44,0-1.66,0-1.66,0-1-1.48A6.19,6.19,0,0,1,15,2.09C15.61,2.18,16.22,2.33,17.1,2.5Z"/></g></g></g></svg>